# xmcd
#
# Track frame offsets:
#	150
#	11220
#	21922
#	33734
#	48306
#	62384
#	72830
#	85485
#	98839
#	111654
#	124838
#	136563
#	154043
#	167207
#	179267
#	191560
#	208482
#
# Disc length: 2948 seconds
#
# Revision: 0
# Processed by: cddbd v1.5.2PL0 Copyright (c) Steve Scherf et al.
# Submitted via: audiograbber 1.83.01
#
DISCID=f40b8211
DTITLE=Chartbusters - CB5076-2
DYEAR=1900
DGENRE=
TTITLE0=Lynn, Loretta - You're Lookin' At Country
TTITLE1=Lynn, Loretta - Trouble In Paradise
TTITLE2=Lynn, Loretta - Fist City
TTITLE3=Lynn, Loretta - Woman Of The World
TTITLE4=Lynn, Loretta - Hey Loretta
TTITLE5=Lynn, Loretta - Wine Women And Song
TTITLE6=Lynn, Loretta - After The Like Is Gone
TTITLE7=Lynn, Loretta - As Soon As I Hang Up The Phone
TTITLE8=Lynn, Loretta - Rated X
TTITLE9=Lynn, Loretta - Success
TTITLE10=Lynn, Loretta - You've Just Stepped In
TTITLE11=Lynn, Loretta - I Can't Hear The Music
TTITLE12=Lynn, Loretta - When The Roll Is Called Up Yonder
TTITLE13=Lynn, Loretta - In The Garden
TTITLE14=Lynn, Loretta - Swing Low Sweet Chariot
TTITLE15=Lynn, Loretta - Precious Memories
TTITLE16=Lynn, Loretta - I Feel Like Traveling On
EXTD=
EXTT0=
EXTT1=
EXTT2=
EXTT3=
EXTT4=
EXTT5=
EXTT6=
EXTT7=
EXTT8=
EXTT9=
EXTT10=
EXTT11=
EXTT12=
EXTT13=
EXTT14=
EXTT15=
EXTT16=
PLAYORDER=
